<mxfile host="app.diagrams.net" agent="Mozilla/5.0 (Windows NT 10.0; Win64; x64) AppleWebKit/537.36 (KHTML, like Gecko) Chrome/138.0.0.0 Safari/537.36" version="28.0.4">
  <diagram name="Page-1" id="xoSw_791o6I91k3j9Vo-">
    <mxGraphModel dx="1675" dy="1013" grid="1" gridSize="10" guides="1" tooltips="1" connect="1" arrows="1" fold="1" page="1" pageScale="1" pageWidth="850" pageHeight="1100" math="0" shadow="0">
      <root>
        <mxCell id="0" />
        <mxCell id="1" parent="0" />
        <mxCell id="7yQzzGOzQ85WZeVPx--7-1" value="" style="rounded=0;whiteSpace=wrap;html=1;strokeWidth=11;movable=1;resizable=1;rotatable=1;deletable=1;editable=1;locked=0;connectable=1;" vertex="1" parent="1">
          <mxGeometry x="220" y="130" width="1330" height="770" as="geometry" />
        </mxCell>
        <mxCell id="7yQzzGOzQ85WZeVPx--7-2" value="MELIHAT BERANDA" style="ellipse;whiteSpace=wrap;html=1;" vertex="1" parent="1">
          <mxGeometry x="721.25" y="200" width="160" height="80" as="geometry" />
        </mxCell>
        <mxCell id="7yQzzGOzQ85WZeVPx--7-4" value="&lt;span style=&quot;font-size: 11px;&quot;&gt;MELIHAT PROFIL&lt;/span&gt;" style="ellipse;whiteSpace=wrap;html=1;" vertex="1" parent="1">
          <mxGeometry x="707.5" y="332.5" width="187.5" height="90" as="geometry" />
        </mxCell>
        <mxCell id="7yQzzGOzQ85WZeVPx--7-5" value="MELIHAT INFORMASI DAN KONTAK&lt;div&gt;dayapprel&lt;/div&gt;" style="ellipse;whiteSpace=wrap;html=1;" vertex="1" parent="1">
          <mxGeometry x="691.25" y="462.5" width="220" height="75" as="geometry" />
        </mxCell>
        <mxCell id="7yQzzGOzQ85WZeVPx--7-6" value="&lt;font style=&quot;font-size: 18px;&quot;&gt;USER&lt;/font&gt;" style="shape=umlActor;verticalLabelPosition=bottom;verticalAlign=top;html=1;outlineConnect=0;" vertex="1" parent="1">
          <mxGeometry x="290" y="422.5" width="75" height="125" as="geometry" />
        </mxCell>
        <mxCell id="7yQzzGOzQ85WZeVPx--7-7" value="&lt;font style=&quot;font-size: 20px;&quot;&gt;LOGIN / REGISTER&lt;/font&gt;" style="ellipse;whiteSpace=wrap;html=1;" vertex="1" parent="1">
          <mxGeometry x="428.75" y="440" width="161.25" height="90" as="geometry" />
        </mxCell>
        <mxCell id="7yQzzGOzQ85WZeVPx--7-8" value="&lt;font style=&quot;font-size: 13px;&quot;&gt;&amp;lt;&amp;lt;include&amp;gt;&amp;gt;&lt;/font&gt;" style="endArrow=open;endSize=12;dashed=1;html=1;rounded=0;exitX=0.5;exitY=0;exitDx=0;exitDy=0;entryX=0;entryY=1;entryDx=0;entryDy=0;" edge="1" parent="1" source="7yQzzGOzQ85WZeVPx--7-7" target="7yQzzGOzQ85WZeVPx--7-2">
          <mxGeometry width="160" relative="1" as="geometry">
            <mxPoint x="1160" y="420" as="sourcePoint" />
            <mxPoint x="1320" y="420" as="targetPoint" />
          </mxGeometry>
        </mxCell>
        <mxCell id="7yQzzGOzQ85WZeVPx--7-9" value="&lt;font style=&quot;font-size: 13px;&quot;&gt;&amp;lt;&amp;lt;include&amp;gt;&amp;gt;&lt;/font&gt;" style="endArrow=open;endSize=12;dashed=1;html=1;rounded=0;exitX=1;exitY=0.5;exitDx=0;exitDy=0;entryX=0.083;entryY=0.271;entryDx=0;entryDy=0;entryPerimeter=0;" edge="1" parent="1" source="7yQzzGOzQ85WZeVPx--7-7" target="7yQzzGOzQ85WZeVPx--7-5">
          <mxGeometry x="0.1717" y="3" width="160" relative="1" as="geometry">
            <mxPoint x="1040" y="862" as="sourcePoint" />
            <mxPoint x="1159" y="760" as="targetPoint" />
            <mxPoint as="offset" />
          </mxGeometry>
        </mxCell>
        <mxCell id="7yQzzGOzQ85WZeVPx--7-10" value="LOGOUT" style="ellipse;whiteSpace=wrap;html=1;" vertex="1" parent="1">
          <mxGeometry x="707.5" y="800" width="197.5" height="70" as="geometry" />
        </mxCell>
        <mxCell id="7yQzzGOzQ85WZeVPx--7-11" value="&lt;font style=&quot;font-size: 13px;&quot;&gt;&amp;lt;&amp;lt;include&amp;gt;&amp;gt;&lt;/font&gt;" style="endArrow=open;endSize=12;dashed=1;html=1;rounded=0;exitX=0.5;exitY=1;exitDx=0;exitDy=0;entryX=0.216;entryY=0.035;entryDx=0;entryDy=0;entryPerimeter=0;" edge="1" parent="1" source="7yQzzGOzQ85WZeVPx--7-7" target="7yQzzGOzQ85WZeVPx--7-10">
          <mxGeometry width="160" relative="1" as="geometry">
            <mxPoint x="1010" y="740" as="sourcePoint" />
            <mxPoint x="1187" y="821" as="targetPoint" />
          </mxGeometry>
        </mxCell>
        <mxCell id="7yQzzGOzQ85WZeVPx--7-13" value="&lt;font style=&quot;font-size: 13px;&quot;&gt;&amp;lt;&amp;lt;include&amp;gt;&amp;gt;&lt;/font&gt;" style="endArrow=open;endSize=12;dashed=1;html=1;rounded=0;exitX=0.946;exitY=0.245;exitDx=0;exitDy=0;entryX=0.013;entryY=0.646;entryDx=0;entryDy=0;exitPerimeter=0;entryPerimeter=0;" edge="1" parent="1" source="7yQzzGOzQ85WZeVPx--7-7" target="7yQzzGOzQ85WZeVPx--7-4">
          <mxGeometry width="160" relative="1" as="geometry">
            <mxPoint x="1150" y="520" as="sourcePoint" />
            <mxPoint x="1333" y="400" as="targetPoint" />
          </mxGeometry>
        </mxCell>
        <mxCell id="7yQzzGOzQ85WZeVPx--7-21" value="" style="endArrow=none;html=1;rounded=0;entryX=0;entryY=0.5;entryDx=0;entryDy=0;" edge="1" parent="1" source="7yQzzGOzQ85WZeVPx--7-6" target="7yQzzGOzQ85WZeVPx--7-7">
          <mxGeometry width="50" height="50" relative="1" as="geometry">
            <mxPoint x="540" y="570" as="sourcePoint" />
            <mxPoint x="440" y="490" as="targetPoint" />
          </mxGeometry>
        </mxCell>
        <mxCell id="7yQzzGOzQ85WZeVPx--7-22" value="&lt;font style=&quot;font-size: 27px;&quot;&gt;&lt;b&gt;USECASE USER&lt;/b&gt;&lt;/font&gt;" style="text;html=1;align=left;verticalAlign=middle;whiteSpace=wrap;rounded=0;" vertex="1" parent="1">
          <mxGeometry x="290" y="150" width="260" height="30" as="geometry" />
        </mxCell>
        <mxCell id="7yQzzGOzQ85WZeVPx--7-44" value="MELIHAT KERANJANG" style="ellipse;whiteSpace=wrap;html=1;" vertex="1" parent="1">
          <mxGeometry x="701.88" y="580" width="198.75" height="75" as="geometry" />
        </mxCell>
        <mxCell id="7yQzzGOzQ85WZeVPx--7-45" value="&lt;font style=&quot;font-size: 13px;&quot;&gt;&amp;lt;&amp;lt;include&amp;gt;&amp;gt;&lt;/font&gt;" style="endArrow=open;endSize=12;dashed=1;html=1;rounded=0;exitX=1;exitY=1;exitDx=0;exitDy=0;entryX=0.035;entryY=0.281;entryDx=0;entryDy=0;entryPerimeter=0;" edge="1" parent="1" source="7yQzzGOzQ85WZeVPx--7-7" target="7yQzzGOzQ85WZeVPx--7-44">
          <mxGeometry x="0.1717" y="3" width="160" relative="1" as="geometry">
            <mxPoint x="610" y="592" as="sourcePoint" />
            <mxPoint x="718" y="590" as="targetPoint" />
            <mxPoint as="offset" />
          </mxGeometry>
        </mxCell>
        <mxCell id="7yQzzGOzQ85WZeVPx--7-46" value="MELIHAT RIWAYAT" style="ellipse;whiteSpace=wrap;html=1;" vertex="1" parent="1">
          <mxGeometry x="707.5" y="690" width="198.75" height="75" as="geometry" />
        </mxCell>
        <mxCell id="7yQzzGOzQ85WZeVPx--7-47" value="&lt;font style=&quot;font-size: 13px;&quot;&gt;&amp;lt;&amp;lt;include&amp;gt;&amp;gt;&lt;/font&gt;" style="endArrow=open;endSize=12;dashed=1;html=1;rounded=0;exitX=0.712;exitY=0.948;exitDx=0;exitDy=0;entryX=0.065;entryY=0.296;entryDx=0;entryDy=0;exitPerimeter=0;entryPerimeter=0;" edge="1" parent="1" source="7yQzzGOzQ85WZeVPx--7-7" target="7yQzzGOzQ85WZeVPx--7-46">
          <mxGeometry x="0.1717" y="3" width="160" relative="1" as="geometry">
            <mxPoint x="580" y="610" as="sourcePoint" />
            <mxPoint x="712" y="694" as="targetPoint" />
            <mxPoint as="offset" />
          </mxGeometry>
        </mxCell>
        <mxCell id="7yQzzGOzQ85WZeVPx--7-49" value="&lt;font style=&quot;font-size: 13px;&quot;&gt;&amp;lt;&amp;lt;extend&amp;gt;&amp;gt;&lt;/font&gt;" style="endArrow=open;endSize=12;dashed=1;html=1;rounded=0;exitX=1;exitY=0.5;exitDx=0;exitDy=0;entryX=0;entryY=0.5;entryDx=0;entryDy=0;" edge="1" parent="1" source="7yQzzGOzQ85WZeVPx--7-2" target="7yQzzGOzQ85WZeVPx--7-50">
          <mxGeometry width="160" relative="1" as="geometry">
            <mxPoint x="970" y="422" as="sourcePoint" />
            <mxPoint x="1010" y="240" as="targetPoint" />
          </mxGeometry>
        </mxCell>
        <mxCell id="7yQzzGOzQ85WZeVPx--7-50" value="MELIHAT DETAIL PRODUK" style="ellipse;whiteSpace=wrap;html=1;" vertex="1" parent="1">
          <mxGeometry x="989.38" y="200" width="160" height="80" as="geometry" />
        </mxCell>
        <mxCell id="7yQzzGOzQ85WZeVPx--7-55" value="&lt;font style=&quot;font-size: 13px;&quot;&gt;&amp;lt;&amp;lt;extend&amp;gt;&amp;gt;&lt;/font&gt;" style="endArrow=open;endSize=12;dashed=1;html=1;rounded=0;exitX=1;exitY=0.5;exitDx=0;exitDy=0;entryX=0;entryY=0.5;entryDx=0;entryDy=0;" edge="1" parent="1" source="7yQzzGOzQ85WZeVPx--7-44" target="7yQzzGOzQ85WZeVPx--7-56">
          <mxGeometry width="160" relative="1" as="geometry">
            <mxPoint x="990" y="580" as="sourcePoint" />
            <mxPoint x="1010" y="618" as="targetPoint" />
          </mxGeometry>
        </mxCell>
        <mxCell id="7yQzzGOzQ85WZeVPx--7-56" value="MELAKUKAN CHECKOUT" style="ellipse;whiteSpace=wrap;html=1;" vertex="1" parent="1">
          <mxGeometry x="970" y="580" width="198.75" height="75" as="geometry" />
        </mxCell>
        <mxCell id="7yQzzGOzQ85WZeVPx--7-57" value="&lt;font style=&quot;font-size: 13px;&quot;&gt;&amp;lt;&amp;lt;extend&amp;gt;&amp;gt;&lt;/font&gt;" style="endArrow=open;endSize=12;dashed=1;html=1;rounded=0;exitX=1;exitY=0.5;exitDx=0;exitDy=0;entryX=0;entryY=0.5;entryDx=0;entryDy=0;" edge="1" parent="1" source="7yQzzGOzQ85WZeVPx--7-50" target="7yQzzGOzQ85WZeVPx--7-58">
          <mxGeometry width="160" relative="1" as="geometry">
            <mxPoint x="1210" y="360" as="sourcePoint" />
            <mxPoint x="1250" y="240" as="targetPoint" />
          </mxGeometry>
        </mxCell>
        <mxCell id="7yQzzGOzQ85WZeVPx--7-58" value="MENAMBAHKAN&lt;div&gt;KE KERANJANG&lt;/div&gt;" style="ellipse;whiteSpace=wrap;html=1;" vertex="1" parent="1">
          <mxGeometry x="1250" y="200" width="160" height="80" as="geometry" />
        </mxCell>
      </root>
    </mxGraphModel>
  </diagram>
</mxfile>
